<svg xmlns="http://www.w3.org/2000/svg" viewBox="0 0 1963 737" width="245" height="92">
<path d="M107.1 511.2L66.5 703H96c28.7 0 52.5-6.5 70.8-19.2 18.8-13 34.8-53.6 40.1-76.8 5-24.1 5.3-64.5-7.6-76.9-13.4-12.7-34.8-18.8-64.3-18.8l-27.9-.1zm-55.9-16.8h79.6c23.2 0 43.2 1.4 59.3 4.2 16.5 2.7 29 6.5 38.6 12.2 17.6 10.3 29.5 23.3 36 39.5 6.5 16.4 7.2 35.2 2.7 56.9-5 21.9-14.1 41.1-27.6 57.2-13.4 15.9-31.7 29.1-54 39.3-12.7 5.8-28 10.4-45.5 13.1-17.6 2.6-38.7 4.2-63.1 4.2H33c-16.2-.3-28.7-13.6-23.8-31.9l42-194.7zm270.5 8.2H378c-15.5 74.1-31 144.3-46.3 218.4h-31.3c-19.7-.3-21.8-12.5-19-26.5l40.3-191.9zM357.6 702c26.5.2 88.8.7 118.4.7 37.3-2.1 45.7-15.7 50.1-41.4 2.9-15.5-25.1-31.6-54.4-42.6-71.7-25.8-81-81.6-20.4-110.9 23.1-10.8 49.7-13.7 82.5-13.7 8.5 0 17.9 1 27.8 2.9 10.6 1.8 24.7 4.6 43.6 9.7l-7.1 19c-35.2-5.8-52.8-9.9-80.4-9.9-12.1 0-21.5 3-29.2 5.8-31 11.5-15 43.1 10.5 56.4 32.2 16.6 67.5 24.7 79.2 42.4 6.9 10.9 12.1 22.3 9.2 37.2-4.1 20.8-15.6 32.9-37.8 45-22.8 12-51.5 18.3-86.6 18.3-24.5 0-84.1 0-109.3.2l3.9-19.1zm534.6-186.3L871.8 625c-4.2 20.7-9.4 42.5-2.6 51.7 14.3 20.6 68.6 18.3 84.7 2.3 13-13.2 22.7-35 27.5-60.4l19.5-105.2 59.3-.5-36.7 204.1-53.4.5 4.4-23.5c-22.7 19.5-49.5 27-88.4 27-31.7 0-50-8.1-63.7-24.1-13.2-16.1-16.8-39.2-11.4-70.1l21.4-111.1c-15.8-2.4-46.5-1.2-59.3-1.2-25.8 0-54.9 7.5-72.5 20.4-51.2 37.7-62.4 159.9 41.5 163.2 9.2.6 32.9-4.6 42.6-6.9l2.2-.5-3 21.6c-5 1-23.6 5.9-27.6 6.3-10.7 1.8-21.1 2.4-30.8 2.4-43.7 0-76.4-10.2-98.7-31.3-21.7-20.9-29.4-49.5-22.7-84.1 5.8-32.5 24.8-59.9 55.3-80.9 31-21 63.8-32.8 111.6-32.8 39.5 0 62.5 0 97.6 1.5 28.1 1 25.6 14.4 23.6 22.3m197-4.3l178.1-.5c6.6 24-1.4 46-24.6 66l-134.5 123.8H1252l-.1 20.3h-198.4c2.4-32.2 2.9-43.1 32.6-71.3l124.4-115.8h-124.2l2.9-22.5zm263.5 207.8l-17.2-.6-1.3-36.1 21 2.2 17.7 1.2-3.3 35.1-16.9-1.8zm17.8-63.8l-29.6-3.4c1.5-16.1-4.7-137.9-5.3-151.7l-1.9-24.6c8.1.4 6.8 0 42.1 4 21.4 1.7 24.8 3.5 31.3 3.5l-8.5 30.9c-7.1 24.1-26.3 132.7-28.1 141.3z" fill="#0b58ad"/>
<path d="M218.1 25.2c24.2 0 47.6 3.5 69.6 10.3 21 6.5 39.9 15.8 56 27.6 31.9 23.4 49.4 53.9 49.4 86.1 0 36.1-22.4 70.4-61.4 94.1l-13.2 8.1 7.6 13.5c4 7.1 6 14.6 6 22.3 0 14.8-7.6 28.9-21.3 39.8-14.8 11.7-34.8 18.2-56.2 18.2s-41.3-6.5-56.2-18.2c-13.7-10.9-21.3-25-21.3-39.8 0-1 0-2.1.1-3.1l1-13.7-13.4-3.1c-35.2-8-66.7-24.3-88.6-45.8-21.7-21.2-33.1-46.3-33.1-72.3 0-32.2 17.5-62.7 49.4-86.1 16.1-11.8 34.9-21.1 56-27.6 22-6.8 45.4-10.3 69.6-10.3m0-16c-105.5 0-191 62.7-191 140 0 62.8 56.4 116 134.2 133.7-.1 1.4-.2 2.9-.2 4.3 0 40.9 41.9 74 93.5 74s93.5-33.1 93.5-74c0-10.8-2.9-21-8.1-30.2 42.2-25.7 69.1-64.4 69.1-107.8 0-77.3-85.5-140-191-140zm144 381c20.1 0 37 11.9 37 26s-16.9 26-37 26-37-11.9-37-26 16.9-26 37-26m0-16c-29.3 0-53 18.8-53 42s23.7 42 53 42 53-18.8 53-42-23.7-42-53-42z" fill="#f4a62f"/>
<text x="700" y="450" font-size="30em" font-style="bold" font-family="Verdana" fill="darkred">ML</text>
</svg>